<svg width="18" height="18" viewBox="0 0 18 18" fill="none" xmlns="http://www.w3.org/2000/svg">
<path d="M9 18C13.9706 18 18 13.9706 18 9C18 4.02944 13.9706 0 9 0C4.02944 0 0 4.02944 0 9C0 13.9706 4.02944 18 9 18Z" fill="#F0F0F0"/>
<path d="M17.4402 12.1305C17.802 11.1555 18 10.101 18 9.00008C18 7.8992 17.802 6.84465 17.4402 5.86966H0.559793C0.198035 6.84465 0 7.8992 0 9.00008C0 10.101 0.198035 11.1555 0.559793 12.1305L9 12.9131L17.4402 12.1305Z" fill="#0052B4"/>
<path d="M8.9988 17.9999C12.8685 17.9999 16.1674 15.5575 17.439 12.1303H0.558594C1.83023 15.5575 5.12912 17.9999 8.9988 17.9999Z" fill="#D80027"/>
</svg>
