<svg width="109" height="50" viewBox="0 0 109 50" fill="none" xmlns="http://www.w3.org/2000/svg">
<g clip-path="url(#clip0_115_5410)">
<path d="M41.1504 46.939L38.1894 14.0404C38.1076 13.1406 37.3551 12.4535 36.4553 12.4535H30.3696V9.70518C30.3696 4.58471 26.198 0.413086 21.0775 0.413086C15.9571 0.413086 11.7854 4.58471 11.7854 9.70518V12.4535H5.68343C4.78367 12.4535 4.03114 13.1406 3.94934 14.0404L1.00466 47.0698C0.955587 47.5606 1.11918 48.035 1.44637 48.3949C1.77355 48.7548 2.24797 48.9675 2.73875 48.9675H39.4327C40.3979 48.9675 41.1831 48.1823 41.1831 47.2171C41.1831 47.1353 41.1668 47.0371 41.1504 46.939ZM15.2863 9.70518C15.2863 6.49875 17.8875 3.89762 21.0939 3.89762C24.3003 3.89762 26.9015 6.49875 26.9015 9.70518V12.4535H15.3027V9.70518H15.2863ZM4.63643 45.483L7.28664 15.9381H11.8018V19.0627C11.8018 20.0279 12.5871 20.8131 13.5523 20.8131C14.5175 20.8131 15.3027 20.0279 15.3027 19.0627V15.9381H26.9015V19.0627C26.9015 20.0279 27.6867 20.8131 28.6519 20.8131C29.6171 20.8131 30.4023 20.0279 30.4023 19.0627V15.9381H34.8684L37.5187 45.483H4.63643Z" fill="white"/>
<path d="M5.42246 14.5974C15.6797 14.532 25.937 14.4829 36.1943 14.4175C37.1268 25.2637 38.0756 36.1099 39.0081 46.9562C26.8368 46.8907 14.6655 46.8416 2.49414 46.7762C3.45934 36.0445 4.4409 25.3128 5.42246 14.5974Z" fill="white"/>
<path d="M46.7799 48.9037C45.5366 48.6092 44.5223 48.2166 43.7207 47.7258L45.4384 43.8487C46.191 44.2904 47.0253 44.6339 47.9578 44.8957C48.8902 45.1574 49.79 45.2883 50.6407 45.2883C51.3769 45.2883 51.9004 45.2229 52.2112 45.0756C52.522 44.9284 52.6856 44.7157 52.6856 44.4376C52.6856 44.1104 52.4729 43.865 52.0639 43.7014C51.655 43.5379 50.9679 43.3579 50.019 43.1616C48.8084 42.8998 47.7942 42.6381 46.9762 42.3436C46.1582 42.0491 45.4548 41.5747 44.8495 40.904C44.2442 40.2333 43.9497 39.3335 43.9497 38.1884C43.9497 37.1904 44.2278 36.2907 44.7841 35.4891C45.3403 34.6711 46.1746 34.0331 47.2707 33.575C48.3831 33.117 49.7082 32.8716 51.2951 32.8716C52.3748 32.8716 53.4381 32.9861 54.4851 33.2151C55.5321 33.4442 56.4482 33.7877 57.2499 34.2458L55.6466 38.1066C54.0925 37.3213 52.6365 36.9287 51.246 36.9287C49.8718 36.9287 49.2011 37.2559 49.2011 37.9266C49.2011 38.2374 49.3974 38.4828 49.8064 38.6301C50.2153 38.7937 50.8861 38.9572 51.8186 39.1372C53.0128 39.3662 54.0271 39.628 54.8614 39.9224C55.6957 40.2169 56.3992 40.6913 57.0208 41.3457C57.6261 42.0001 57.9369 42.9162 57.9369 44.045C57.9369 45.0429 57.6588 45.9427 57.1026 46.7443C56.5464 47.5459 55.7121 48.1839 54.616 48.6583C53.5036 49.1327 52.1785 49.3618 50.5916 49.3618C49.2829 49.3454 48.0232 49.1982 46.7799 48.9037Z" fill="white"/>
<path d="M73.9535 33.2139V48.9842H68.6367V43.1767H63.7289V48.9842H58.4121V33.2139H63.7289V38.8088H68.6367V33.2139H73.9535Z" fill="white"/>
<path d="M79.0903 48.297C77.7325 47.5935 76.6855 46.6119 75.9166 45.3523C75.1477 44.0926 74.7715 42.6857 74.7715 41.0989C74.7715 39.512 75.1477 38.1051 75.9166 36.8454C76.6855 35.5858 77.7489 34.6042 79.0903 33.9008C80.4482 33.1973 81.9696 32.8374 83.6709 32.8374C85.3723 32.8374 86.8937 33.1973 88.2515 33.9008C89.6094 34.6042 90.6564 35.5858 91.4253 36.8454C92.1941 38.1051 92.5704 39.512 92.5704 41.0989C92.5704 42.6857 92.1941 44.0926 91.4253 45.3523C90.6564 46.6119 89.593 47.5935 88.2515 48.297C86.8937 49.0004 85.3723 49.3603 83.6709 49.3603C81.9696 49.3439 80.4318 49.0004 79.0903 48.297ZM85.4541 44.567C85.994 44.2398 86.4193 43.7818 86.7301 43.1928C87.041 42.6039 87.2046 41.9005 87.2046 41.1152C87.2046 40.3136 87.041 39.6265 86.7301 39.0376C86.4193 38.4486 85.994 37.9906 85.4541 37.6634C84.9143 37.3362 84.3253 37.1726 83.6546 37.1726C83.0002 37.1726 82.3949 37.3362 81.8551 37.6634C81.3152 37.9906 80.8899 38.4486 80.579 39.0376C80.2682 39.6265 80.1046 40.33 80.1046 41.1152C80.1046 41.9168 80.2682 42.6039 80.579 43.1928C80.8899 43.7818 81.3152 44.2398 81.8551 44.567C82.3949 44.8942 82.9839 45.0578 83.6546 45.0578C84.3253 45.0414 84.9143 44.8779 85.4541 44.567Z" fill="white"/>
<path d="M104.774 33.9332C105.853 34.4076 106.688 35.1111 107.277 36.0109C107.865 36.9106 108.16 37.9576 108.16 39.1682C108.16 40.3624 107.865 41.4258 107.277 42.3255C106.688 43.2253 105.853 43.9124 104.774 44.4032C103.694 44.8776 102.418 45.123 100.962 45.123H98.6879V49.0001H93.3711V33.2298H100.962C102.434 33.2134 103.694 33.4588 104.774 33.9332ZM102.254 40.526C102.614 40.1988 102.794 39.7408 102.794 39.1682C102.794 38.5956 102.614 38.1212 102.254 37.8104C101.894 37.4832 101.354 37.3196 100.635 37.3196H98.7042V41.0168H100.635C101.354 41.0168 101.894 40.8532 102.254 40.526Z" fill="white"/>
<path d="M20.6368 42.2608C21.144 42.9315 21.4057 43.7495 21.4057 44.7311C21.4057 46.1216 20.8659 47.1686 19.7862 47.9211C18.7064 48.6573 17.1523 49.0336 15.091 49.0336H6.92773V33.2632H14.633C16.5634 33.2632 18.0357 33.6395 19.0663 34.3756C20.097 35.1118 20.6041 36.1097 20.6041 37.3694C20.6041 38.1383 20.4242 38.8254 20.0479 39.4143C19.6716 40.0196 19.1645 40.494 18.5101 40.8376C19.4262 41.1157 20.1297 41.5901 20.6368 42.2608ZM10.5759 36.0116V39.7251H14.2076C15.1074 39.7251 15.7945 39.5615 16.2525 39.2507C16.7106 38.9399 16.956 38.4655 16.956 37.8602C16.956 37.2385 16.727 36.7804 16.2525 36.4696C15.7945 36.1588 15.1074 36.0116 14.2076 36.0116H10.5759ZM17.0051 45.8108C17.4958 45.5 17.7412 45.0092 17.7412 44.3384C17.7412 43.0297 16.776 42.3753 14.8293 42.3753H10.5759V46.2688H14.8293C15.7945 46.2852 16.5143 46.1216 17.0051 45.8108Z" fill="#007AFF"/>
<path d="M30.2892 43.4382V49.0331H26.6411V43.4055L20.5391 33.2627H24.4162L28.6369 40.2645L32.8576 33.2627H36.4403L30.2892 43.4382Z" fill="#007AFF"/>
</g>
<defs>
<clipPath id="clip0_115_5410">
<rect width="107.317" height="50" fill="white" transform="translate(0.841797)"/>
</clipPath>
</defs>
</svg>
