<svg width="19" height="19" viewBox="0 0 19 19" fill="none" xmlns="http://www.w3.org/2000/svg">
<path d="M4.12941 11.7659L7.23611 14.8757C8.5117 16.1526 10.5828 16.1526 11.8653 14.8757L14.876 11.862C16.1516 10.5851 16.1516 8.51193 14.876 7.2282L11.7624 4.12526C11.1109 3.4731 10.2125 3.12299 9.29352 3.17104L5.86449 3.3358C4.49288 3.39758 3.40245 4.4891 3.33387 5.85522L3.16928 9.28766C3.12813 10.2144 3.47789 11.1137 4.12941 11.7659Z" stroke="#5200FF" stroke-width="1.5" stroke-linecap="round" stroke-linejoin="round"/>
<path d="M7.91536 9.49999C8.78982 9.49999 9.4987 8.79111 9.4987 7.91666C9.4987 7.04221 8.78982 6.33333 7.91536 6.33333C7.04091 6.33333 6.33203 7.04221 6.33203 7.91666C6.33203 8.79111 7.04091 9.49999 7.91536 9.49999Z" stroke="#5200FF" stroke-width="1.5" stroke-linecap="round"/>
</svg>
